<svg width="96" height="96" viewBox="0 0 96 96" fill="none" xmlns="http://www.w3.org/2000/svg">
<g id="injection" clip-path="url(#clip0)">
<g id="pusher">
<path id="Vector" d="M9.40515 67.2468C7.7259 65.5675 5.00329 65.5675 3.32404 67.2468C1.64478 68.926 1.64478 71.6487 3.32403 73.3279L23.42 93.4239C25.0993 95.1031 27.8219 95.1031 29.5011 93.4239C31.1804 91.7446 31.1804 89.022 29.5011 87.3428L9.40515 67.2468Z" fill="#575072"/>
<path id="Vector_2" d="M29.5 87.34L9.41 67.25C8.60364 66.4439 7.51016 65.9911 6.37 65.9911C5.22984 65.9911 4.13636 66.4439 3.33 67.25C2.86391 67.739 2.52111 68.3321 2.33 68.98C3.07841 68.7295 3.88141 68.6903 4.65065 68.8668C5.4199 69.0432 6.12556 69.4284 6.69 69.98L26.79 90.08C27.3416 90.6444 27.7268 91.3501 27.9032 92.1193C28.0797 92.8886 28.0405 93.6916 27.79 94.44C28.4379 94.2489 29.031 93.9061 29.52 93.44C29.9208 93.0391 30.2384 92.5628 30.4545 92.0386C30.6705 91.5145 30.7808 90.9528 30.7789 90.3858C30.7771 89.8189 30.6631 89.2579 30.4436 88.7352C30.2241 88.2125 29.9034 87.7383 29.5 87.34V87.34Z" fill="#363354"/>
<path id="Vector_3" d="M9.40515 67.2468C7.7259 65.5675 5.00329 65.5675 3.32404 67.2468C1.64478 68.926 1.64478 71.6487 3.32403 73.3279L23.42 93.4239C25.0993 95.1031 27.8219 95.1031 29.5011 93.4239C31.1804 91.7446 31.1804 89.022 29.5011 87.3428L9.40515 67.2468Z" stroke="#281A3B" stroke-width="4" stroke-linecap="round" stroke-linejoin="round"/>
<path id="Vector_4" d="M28.5731 62.0919L16.4038 74.2612L22.485 80.3423L34.6543 68.173L28.5731 62.0919Z" stroke="#281A3B" stroke-width="4" stroke-linecap="round" stroke-linejoin="round"/>
<path id="Vector_5" d="M28.5731 62.0919L16.4038 74.2612L22.485 80.3423L34.6543 68.173L28.5731 62.0919Z" fill="#EAEAEA"/>
</g>
<g id="needle-body">
<path id="Vector_6" d="M40.75 74.25L22.5 56L58.56 19.93C59.3587 19.1303 60.3073 18.4958 61.3514 18.0629C62.3955 17.63 63.5147 17.4072 64.645 17.4072C65.7753 17.4072 66.8945 17.63 67.9386 18.0629C68.9827 18.4958 69.9313 19.1303 70.73 19.93L76.82 26C77.6197 26.7987 78.2542 27.7473 78.6871 28.7914C79.12 29.8355 79.3428 30.9547 79.3428 32.085C79.3428 33.2153 79.12 34.3345 78.6871 35.3786C78.2542 36.4227 77.6197 37.3713 76.82 38.17L40.75 74.25Z" fill="#EAEAEA"/>
<path id="Vector_7" d="M56.72 52.28L45.72 63.28C44.6697 64.331 43.4225 65.1648 42.0499 65.7336C40.6772 66.3025 39.2059 66.5952 37.72 66.5952C36.2341 66.5952 34.7628 66.3025 33.3901 65.7336C32.0175 65.1648 30.7703 64.331 29.72 63.28L40.72 74.28L59.72 55.28L56.72 52.28Z" fill="#C2D2D3"/>
<path id="Vector_8" d="M40.75 74.25L22.5 56L58.56 19.93C59.3587 19.1303 60.3073 18.4958 61.3514 18.0629C62.3955 17.63 63.5147 17.4072 64.645 17.4072C65.7753 17.4072 66.8945 17.63 67.9386 18.0629C68.9827 18.4958 69.9313 19.1303 70.73 19.93L76.82 26C77.6197 26.7987 78.2542 27.7473 78.6871 28.7914C79.12 29.8355 79.3428 30.9547 79.3428 32.085C79.3428 33.2153 79.12 34.3345 78.6871 35.3786C78.2542 36.4227 77.6197 37.3713 76.82 38.17L40.75 74.25Z" stroke="#281A3B" stroke-width="4" stroke-linecap="round" stroke-linejoin="round"/>
<path id="Vector_9" d="M59.72 55.28L41.47 37L58.56 19.93C59.3587 19.1303 60.3073 18.4958 61.3514 18.0629C62.3955 17.63 63.5147 17.4072 64.645 17.4072C65.7753 17.4072 66.8945 17.63 67.9386 18.0629C68.9827 18.4958 69.9313 19.1303 70.73 19.93L76.82 26C77.6197 26.7987 78.2542 27.7473 78.6871 28.7914C79.12 29.8355 79.3428 30.9547 79.3428 32.085C79.3428 33.2153 79.12 34.3345 78.6871 35.3786C78.2542 36.4227 77.6197 37.3713 76.82 38.17L59.72 55.28Z" fill="#AAE1E9"/>
<path id="Vector_10" d="M94 2.75L79.86 16.89" stroke="#281A3B" stroke-width="4" stroke-linecap="round" stroke-linejoin="round"/>
<path id="Vector_11" d="M76.82 26L70.74 19.92L73.74 16.92C74.5464 16.1139 75.6398 15.6611 76.78 15.6611C77.9202 15.6611 79.0136 16.1139 79.82 16.92V16.92C80.6261 17.7264 81.0789 18.8198 81.0789 19.96C81.0789 21.1002 80.6261 22.1936 79.82 23L76.82 26Z" fill="#EAEAEA"/>
<path id="Vector_12" d="M76.82 26L70.74 19.92L73.74 16.92C74.5464 16.1139 75.6398 15.6611 76.78 15.6611C77.9202 15.6611 79.0136 16.1139 79.82 16.92V16.92C80.6261 17.7264 81.0789 18.8198 81.0789 19.96C81.0789 21.1002 80.6261 22.1936 79.82 23L76.82 26Z" stroke="#281A3B" stroke-width="4" stroke-linecap="round" stroke-linejoin="round"/>
<path id="Vector_13" d="M52.33 26.16L56.4 30.23" stroke="#281A3B" stroke-width="4" stroke-linecap="round" stroke-linejoin="round"/>
<path id="Vector_14" d="M46.91 31.59L53.69 38.36" stroke="#281A3B" stroke-width="4" stroke-linecap="round" stroke-linejoin="round"/>
<path id="Vector_15" d="M41.49 37.01L45.56 41.07" stroke="#281A3B" stroke-width="4" stroke-linecap="round" stroke-linejoin="round"/>
<path id="Vector_16" d="M36.07 42.43L42.85 49.2" stroke="#281A3B" stroke-width="4" stroke-linecap="round" stroke-linejoin="round"/>
<path id="Vector_17" d="M30.65 47.85L34.71 51.91" stroke="#281A3B" stroke-width="4" stroke-linecap="round" stroke-linejoin="round"/>
<path id="Vector_18" d="M76.82 38.19L60 55L59.59 55.19L59.36 55.3L56.36 52.3L66.12 42.54C67.7327 40.9256 68.6386 38.737 68.6386 36.455C68.6386 34.1731 67.7327 31.9844 66.12 30.37L65.12 29.37C64.0697 28.319 62.8225 27.4852 61.4499 26.9164C60.0772 26.3475 58.6059 26.0548 57.12 26.0548C55.6341 26.0548 54.1628 26.3475 52.7901 26.9164C51.4175 27.4852 50.1703 28.319 49.12 29.37V29.37L58.55 19.94C60.1644 18.3273 62.3531 17.4214 64.635 17.4214C66.917 17.4214 69.1056 18.3273 70.72 19.94L76.82 26C77.6216 26.7998 78.2575 27.7498 78.6914 28.7956C79.1253 29.8415 79.3486 30.9627 79.3486 32.095C79.3486 33.2273 79.1253 34.3485 78.6914 35.3944C78.2575 36.4402 77.6216 37.3902 76.82 38.19Z" fill="#75C9C9"/>
<path id="Vector_19" d="M76.82 38.19L60 55L59.7 55.3L41.47 37L49.13 29.34L58.56 19.91C60.1744 18.2973 62.363 17.3914 64.645 17.3914C66.9269 17.3914 69.1156 18.2973 70.73 19.91L76.82 26C77.6216 26.7998 78.2575 27.7498 78.6914 28.7956C79.1253 29.8415 79.3486 30.9627 79.3486 32.095C79.3486 33.2273 79.1253 34.3485 78.6914 35.3944C78.2575 36.4402 77.6216 37.3902 76.82 38.19Z" stroke="#281A3B" stroke-width="4" stroke-linecap="round" stroke-linejoin="round"/>
<path id="Vector_20" d="M57.75 20.74L64.53 27.52" stroke="#281A3B" stroke-width="4" stroke-linecap="round" stroke-linejoin="round"/>
<path id="Vector_21" d="M16.41 49.92L46.83 80.34" stroke="#281A3B" stroke-width="4" stroke-linecap="round" stroke-linejoin="round"/>
</g>
</g>
<defs>
<clipPath id="clip0">
<rect width="96" height="96" fill="white"/>
</clipPath>
</defs>
</svg>
